<svg width="35" height="35" viewBox="0 0 35 35" fill="none" xmlns="http://www.w3.org/2000/svg">
<mask id="mask0_191_53" style="mask-type:alpha" maskUnits="userSpaceOnUse" x="0" y="0" width="35" height="35">
<rect width="35" height="35" fill="#D9D9D9"/>
</mask>
<g mask="url(#mask0_191_53)">
<path d="M10.209 30.625C9.4069 30.625 8.72027 30.3394 8.14909 29.7682C7.57791 29.197 7.29232 28.5104 7.29232 27.7083V8.75H5.83398V5.83333H13.1257V4.375H21.8757V5.83333H29.1673V8.75H27.709V27.7083C27.709 28.5104 27.4234 29.197 26.8522 29.7682C26.281 30.3394 25.5944 30.625 24.7923 30.625H10.209ZM24.7923 8.75H10.209V27.7083H24.7923V8.75ZM13.1257 24.7917H16.0423V11.6667H13.1257V24.7917ZM18.959 24.7917H21.8757V11.6667H18.959V24.7917Z" fill="#000000"/>
</g>
</svg>
